<?xml version="1.0" encoding="utf-8"?>
<!-- Generator: Adobe Illustrator 24.1.2, SVG Export Plug-In . SVG Version: 6.00 Build 0)  -->
<svg version="1.1" id="Layer_1" xmlns="http://www.w3.org/2000/svg" xmlns:xlink="http://www.w3.org/1999/xlink" x="0px" y="0px"
	 viewBox="0 0 135 120" style="enable-background:new 0 0 135 120;" xml:space="preserve">
<style type="text/css">
	.st0{opacity:0.1;fill:#7A7AAC;enable-background:new    ;}
	.st1{fill:#242D78;stroke:#F1F1F7;stroke-width:0.4;}
</style>
<g id="Group_6256" transform="translate(-237 -2904)">
	<g id="Group_5613" transform="translate(92 1618)">
		<path id="Path_7078" class="st0" d="M204.9,1403.2c-10.8-1.8-25.4-5.4-41.1-43.4c-15.8-38-12.8-51.4-3.1-62.5
			c9.7-11.1,32.5-9.3,47.5-3.1c15.1,6.2,55,25.1,59.9,29.4c5,4.3,17.8,17-4.9,45.2C240.7,1397,215.7,1404.9,204.9,1403.2z"/>
	</g>
	<g id="payment-method" transform="translate(296.962 2947.671)">
		<g id="Group_6209" transform="translate(15.013 37.749)">
			<g id="Group_6208">
				<path id="Path_7666" class="st1" d="M-16.5-8.9c0-0.1,0-0.1-0.1-0.2c0-0.1-0.1-0.1-0.1-0.2c-0.1-0.1-0.2-0.2-0.3-0.3
					c-0.1,0-0.1-0.1-0.2-0.1c-0.1,0-0.1,0-0.2-0.1c-0.1,0-0.3,0-0.4,0c-0.1,0-0.1,0-0.2,0.1c-0.1,0-0.1,0.1-0.2,0.1
					c-0.2,0.1-0.3,0.3-0.4,0.4c0,0.1,0,0.1-0.1,0.2c0,0.1,0,0.3,0,0.4c0,0.1,0,0.1,0.1,0.2c0,0.1,0.1,0.1,0.1,0.2
					c0.1,0.1,0.2,0.2,0.3,0.3c0.1,0,0.1,0.1,0.2,0.1c0.1,0,0.1,0,0.2,0.1c0.1,0,0.3,0,0.4,0c0.1,0,0.1,0,0.2-0.1
					c0.1,0,0.1-0.1,0.2-0.1c0.1-0.1,0.2-0.2,0.3-0.3c0-0.1,0.1-0.1,0.1-0.2c0-0.1,0-0.1,0.1-0.2C-16.4-8.7-16.4-8.8-16.5-8.9
					L-16.5-8.9z"/>
			</g>
		</g>
		<g id="Group_6211" transform="translate(0 30.482)">
			<g id="Group_6210">
				<path id="Path_7667" class="st1" d="M26.8-1.3L26.8-1.3c-0.9-2.1-3-2.9-5.5-2.1l-6.8,1.9c-0.5-1.3-1.5-2.3-2.8-2.7l0,0L4.1-6.8
					c-1.5-1.9-3.8-3-6.3-2.9C-4.7-9.5-7-8.2-8.3-6h-9.1c-0.5,0-1,0.4-1,1c0,0,0,0,0,0V7.4c0,0.5,0.4,1,1,1c0,0,0,0,0,0h5.8
					c0.5,0,1-0.4,1-1l0,0V6.5h2.7c0.5,0,1-0.4,1-1l0,0V5.2c1.3,0.1,2.5,0.5,3.6,1.3c1.9,1.1,3.9,2.1,5.9,3l0,0
					c1,0.4,2.1,0.6,3.2,0.6c1.1,0,2.2-0.2,3.3-0.7L24.2,4c0,0,0.1,0,0.1,0C25.7,3.3,27.9,1.5,26.8-1.3z M-12.6,6.4h-3.9V-4.1h3.9
					V6.4z M-8.8,4.5h-1.8V-4h1.8L-8.8,4.5z M23.5,2.2L8.4,7.6l0,0l0,0C6.7,8.3,5,8.4,3.4,7.7c-2-0.9-3.9-1.8-5.7-2.9
					c-1.4-0.9-2.9-1.5-4.6-1.6v-7.9c0.9-1.5,2.7-3.1,4.7-3.1C-0.3-7.8,1.5-7,2.6-5.5c0.1,0.2,0.3,0.3,0.5,0.4L11-2.4
					c1.1,0.3,1.8,1.4,1.6,2.6c-0.3,1-1.3,1.6-2.4,1.3L1.4-1.3C0.9-1.4,0.3-1.1,0.2-0.6C0-0.1,0.3,0.4,0.8,0.6l8.8,2.8l0,0
					c1,0.3,2.1,0.2,3-0.3c0.9-0.5,1.6-1.3,1.8-2.3c0-0.1,0-0.2,0.1-0.2l7.4-2C22.9-1.9,24.3-2,25-0.6C25.6,1.1,23.9,2,23.5,2.2
					L23.5,2.2z"/>
			</g>
		</g>
		<g id="Group_6213" transform="translate(33.344 12.159)">
			<g id="Group_6212">
				<path id="Path_7668" class="st1" d="M-16.5-8.9c0-0.1,0-0.1-0.1-0.2c-0.1-0.2-0.2-0.3-0.4-0.4c-0.1,0-0.1-0.1-0.2-0.1
					c-0.2-0.1-0.4-0.1-0.6-0.1c-0.1,0-0.1,0-0.2,0.1c-0.1,0-0.1,0.1-0.2,0.1c-0.1,0.1-0.2,0.2-0.3,0.3c0,0.1-0.1,0.1-0.1,0.2
					c0,0.1,0,0.1-0.1,0.2c0,0.1,0,0.3,0,0.4c0,0.1,0,0.1,0.1,0.2c0,0.1,0.1,0.1,0.1,0.2c0.1,0.1,0.2,0.2,0.3,0.3
					c0.1,0,0.1,0.1,0.2,0.1c0.1,0,0.1,0,0.2,0.1c0.1,0,0.1,0,0.2,0c0.1,0,0.1,0,0.2,0c0.1,0,0.1,0,0.2-0.1c0.1,0,0.1-0.1,0.2-0.1
					c0.1-0.1,0.2-0.2,0.3-0.3c0-0.1,0.1-0.1,0.1-0.2c0-0.1,0-0.1,0.1-0.2C-16.4-8.7-16.4-8.8-16.5-8.9L-16.5-8.9z"/>
			</g>
		</g>
		<g id="Group_6215" transform="translate(2.918 0.023)">
			<g id="Group_6214">
				<path id="Path_7669" class="st1" d="M28-6.4h-5.8c-0.5,0-1,0.4-1,1c0,0,0,0,0,0v0.8h-2.7c-0.5,0-1,0.4-1,1c0,0,0,0,0,0v0.3
					c-1.3-0.1-2.5-0.5-3.6-1.3C12-5.7,10-6.7,8-7.6l0,0C5.9-8.4,3.6-8.4,1.5-7.5l-4,1.4l-3.3-3.3c-0.4-0.4-1-0.4-1.4,0L-18.1,1.5
					c-0.4,0.4-0.4,1,0,1.4c0,0,0,0,0,0L0.6,21.6C1,22,1.6,22,2,21.6l10-10c0.3,0,0.5,0,0.8,0c2.5-0.2,4.8-1.5,6.1-3.7H28
					c0.5,0,1-0.4,1-1v0V-5.4C29-5.9,28.6-6.4,28-6.4z M-6.5-7.3l2.2,2.2c-1.4,0.8-3.1,0.8-4.5,0L-6.5-7.3z M-13.8,4.5L-16,2.2
					l2.2-2.2C-13,1.4-13,3.1-13.8,4.5z M1.3,19.5L-1,17.3c1.4-0.8,3.1-0.8,4.5,0L1.3,19.5z M4.9,15.9c-2.2-1.6-5.1-1.6-7.3,0l-10-10
					c1.6-2.2,1.6-5.1,0-7.3l2.2-2.2C-8-2.1-5-2.1-2.8-3.7l2.1,2.1c-1.3,0.2-2.4,1-2.9,2.1c-3,0.6-5,3.5-4.5,6.5s3.5,5,6.5,4.5
					c2.1-0.4,3.8-2,4.4-4.1l3.3,1.1c-0.4,1.7,0,3.5,1,5L4.9,15.9z M-1,6.2L-1,6.2l2,0.7c-0.4,2-2.4,3.2-4.3,2.8
					c-2-0.4-3.2-2.4-2.8-4.3C-5.9,4.2-5.1,3.2-4,2.7C-3.7,4.4-2.6,5.7-1,6.2z M8.6,12.2c-0.4-0.6-0.6-1.3-0.6-2
					c0.5,0.4,1.1,0.7,1.7,0.9L8.6,12.2z M17.5,6.6c-0.9,1.5-2.7,3.1-4.7,3.1c-0.3,0-0.7,0-1-0.1l0,0c-1.4-0.2-2.7-0.9-3.6-2
					c0,0-0.1-0.1-0.1-0.2C7.9,7.3,7.7,7.1,7.4,7l-7.8-2.6C-1.5,4.1-2.2,2.9-2,1.8l0,0c0.3-1,1.3-1.6,2.4-1.3l8.8,2.8
					c0.5,0.2,1.1-0.1,1.2-0.7c0.2-0.5-0.1-1.1-0.6-1.2l-7-2.2L2.7-0.9l0,0l-3.6-3.6l3.1-1.1l0,0h0l0,0c1.6-0.7,3.3-0.7,4.9-0.1
					c2,0.9,3.9,1.8,5.7,2.9c1.4,0.9,2.9,1.5,4.6,1.6L17.5,6.6z M21.2,6h-1.8v-8.6h1.8L21.2,6z M27,6h-3.9V-4.4H27L27,6z"/>
			</g>
		</g>
	</g>
</g>
</svg>
