<?xml version="1.0" encoding="utf-8"?>
<!-- Generator: Adobe Illustrator 24.1.2, SVG Export Plug-In . SVG Version: 6.00 Build 0)  -->
<svg version="1.1" id="Layer_1" xmlns="http://www.w3.org/2000/svg" xmlns:xlink="http://www.w3.org/1999/xlink" x="0px" y="0px"
	 viewBox="0 0 135 120" style="enable-background:new 0 0 135 120;" xml:space="preserve">
<style type="text/css">
	.st0{opacity:0.1;fill:#7A7AAC;enable-background:new    ;}
	.st1{fill:#242D78;stroke:#F1F1F7;stroke-width:0.2;}
</style>
<g id="Group_6255" transform="translate(-651 -2919.483)">
	<g id="Group_5614" transform="translate(-113.229 1615)">
		<path id="Path_7080" class="st0" d="M845.9,1416.2c-10.8,1.7-25.8,2.7-52.5-28.6c-26.7-31.2-28-44.9-22.2-58.5
			c5.8-13.6,28-18.8,44.2-17.6c16.2,1.2,60,7,66.1,9.5c6.1,2.6,22.2,10.6,9.3,44.4C878,1399.3,856.7,1414.5,845.9,1416.2z"/>
	</g>
	<g id="Group_6234" transform="translate(356 644)">
		<path id="Union_35" class="st1" d="M344.8,2355.9c-0.2,0-0.5-0.1-0.6-0.3c-0.2-0.2-0.2-0.4-0.2-0.6l1.7-32.9c0-0.2,0-0.3,0.1-0.4
			l2.5-4.2c0.2-0.3,0.4-0.4,0.7-0.4h0.6l-0.7-5.8c-0.1-0.5,0.3-0.9,0.7-0.9c0,0,0,0,0,0l9.5-1.1c0-0.1,0.1-0.1,0.1-0.2
			c1.4-1.8,3.5-2.9,5.8-2.9c3.4,0,6.3,2.4,7,5.7l7.5,1.8c0.2,0.1,0.4,0.2,0.5,0.4c0.1,0.2,0.2,0.4,0.1,0.6l-0.6,2.5h1.4
			c0.3,0,0.6,0.2,0.7,0.4l2.5,4.2c0.1,0.1,0.1,0.3,0.1,0.4l1.7,32.9c0,0.2-0.1,0.5-0.2,0.6c-0.2,0.2-0.4,0.3-0.6,0.3L344.8,2355.9z
			 M345.7,2354.2h38.8l-1.6-31.3h-35.6L345.7,2354.2z M382.2,2321.3l-1.5-2.5h-1.4l-0.6,2.5H382.2z M377,2321.3l1.5-6.3l-9.9-2.3
			l-0.4,1.9l1.4-0.3c0.2-0.1,0.4,0,0.6,0.1c0.2,0.1,0.3,0.3,0.4,0.5l1.6,6.4L377,2321.3z M370.3,2321.3l-1.3-5.2l-12,2.9l0.6,2.4
			H370.3z M355.9,2321.3l-0.7-2.8c-0.1-0.5,0.2-0.9,0.6-1c0,0,0,0,0,0l7.9-1.9l-0.6-5.2l-12.5,1.5l1.1,9.4L355.9,2321.3z
			 M348,2321.3h2.1l-0.3-2.5h-0.3L348,2321.3z M364.4,2308.8c0.2,0.1,0.3,0.3,0.3,0.6l0.7,5.8l0.9-0.2l0.8-3.5
			c0-0.2,0.2-0.4,0.4-0.5c0.2-0.1,0.4-0.2,0.6-0.1l2.1,0.5c-0.8-2.1-2.9-3.5-5.1-3.6c-1.2,0-2.4,0.4-3.3,1.1l2.1-0.2
			c0,0,0.1,0,0.1,0C364.1,2308.6,364.3,2308.7,364.4,2308.8L364.4,2308.8z M357.9,2332.7v-3.1c-1-0.4-1.7-1.3-1.7-2.4
			c0-1.4,1.1-2.5,2.5-2.5c1.4,0,2.5,1.1,2.5,2.5c0,1.1-0.7,2-1.7,2.4v3.1c0,3,2.5,5.5,5.5,5.5c3,0,5.5-2.5,5.5-5.5v-3.1
			c-1-0.4-1.7-1.3-1.7-2.4c0-1.4,1.1-2.5,2.5-2.5c1.4,0,2.5,1.1,2.5,2.5c0,1.1-0.7,2-1.7,2.4v3.1c0,4-3.2,7.2-7.2,7.2
			C361.1,2339.8,357.9,2336.6,357.9,2332.7L357.9,2332.7z M371.4,2327.2c0.3,0,0.6,0.2,0.7,0.4c0.1-0.1,0.1-0.3,0.1-0.4
			c0-0.5-0.4-0.8-0.8-0.8c0,0,0,0,0,0c-0.5,0-0.8,0.4-0.8,0.8c0,0,0,0,0,0c0,0.1,0,0.3,0.1,0.4
			C370.8,2327.3,371.1,2327.2,371.4,2327.2L371.4,2327.2z M359.5,2327.6c0.1-0.1,0.1-0.3,0.1-0.4c0-0.5-0.4-0.8-0.8-0.8c0,0,0,0,0,0
			c-0.5,0-0.8,0.4-0.8,0.8c0,0,0,0,0,0c0,0.1,0,0.3,0.1,0.4c0.2-0.3,0.4-0.4,0.7-0.4C359,2327.2,359.3,2327.3,359.5,2327.6
			L359.5,2327.6z"/>
	</g>
</g>
</svg>
