<?xml version="1.0" encoding="utf-8"?>
<!-- Generator: Adobe Illustrator 24.1.2, SVG Export Plug-In . SVG Version: 6.00 Build 0)  -->
<svg version="1.1" id="Layer_1" xmlns="http://www.w3.org/2000/svg" xmlns:xlink="http://www.w3.org/1999/xlink" x="0px" y="0px"
	 viewBox="0 0 135 120" style="enable-background:new 0 0 135 120;" xml:space="preserve">
<style type="text/css">
	.st0{opacity:0.1;fill:#7A7AAC;enable-background:new    ;}
	.st1{fill:#242D78;stroke:#F1F1F7;stroke-width:0.3;}
	.st2{fill:#252E78;}
	.st3{font-family:'Roboto-Regular';}
	.st4{font-size:14px;}
</style>
<g id="Group_6254" transform="translate(-1056 -2921.746)">
	<g id="Group_5612" transform="translate(275.108 1845)">
		<path id="Path_7081" class="st0" d="M834.3,1084.4c10.8-1.8,25.7-3.1,53,27.6c27.2,30.7,28.8,44.4,23.2,58.1
			c-5.6,13.7-27.7,19.3-43.9,18.4s-60.1-5.9-66.2-8.3c-6.1-2.4-22.4-10.2-10.1-44.2C802.6,1101.9,823.5,1086.2,834.3,1084.4z"/>
	</g>
	<g id="investment" transform="translate(1075.229 2925.804)">
		<path id="Path_7679" class="st1" d="M19.6,80.9h26.6c0.5,0,0.8-0.4,0.8-0.8v-2.1c0-1-0.4-1.9-1.1-2.6l-0.6-0.6V61.8
			c0-4.4-3.5-8.1-7.9-8.3l0.3-0.7c0.7-1.6,1-3.4,1-5.1c0-0.5-0.4-0.8-0.8-0.8c0,0,0,0,0,0h-10c-0.5,0-0.8,0.4-0.8,0.8
			c0,1.8,0.3,3.5,1,5.1l0.3,0.7c-4.4,0.2-7.9,3.9-7.9,8.3v12.1c0,0.5-0.2,1-0.6,1.4c-0.7,0.7-1.1,1.6-1.1,2.6v2.1
			C18.7,80.5,19.1,80.9,19.6,80.9L19.6,80.9z M37,48.5c-0.1,1.3-0.4,2.5-0.8,3.7l-0.5,1.3h-5.5l-0.5-1.3c-0.5-1.2-0.7-2.4-0.8-3.7
			H37z M20.4,77.9c0-0.5,0.2-1,0.6-1.4c0.7-0.7,1.1-1.6,1.1-2.6V61.8c0-3.7,3-6.6,6.6-6.6H37c3.7,0,6.6,3,6.6,6.6v12.5h-3.3v1.7h3.8
			l0.6,0.6c0.4,0.4,0.6,0.9,0.6,1.4v1.3H20.4V77.9z"/>
		<path id="Path_7681" class="st1" d="M67.7,59.3h-3.3V51h1.7c0.5,0,0.8-0.4,0.8-0.8v-10c0-0.5-0.4-0.8-0.8-0.8l0,0
			c0.5-0.7,0.8-1.6,0.8-2.5v-1.7c0-0.5-0.4-0.8-0.8-0.8c0,0,0,0,0,0h-6.6c-0.5,0-0.8,0.4-0.8,0.8v1.7c0,1.4-1.1,2.5-2.5,2.5H42.8
			c-0.5,0-0.8,0.4-0.8,0.8v9.1h-1.7c-0.5,0-0.8,0.4-0.8,0.8v2.5h1.7V51h6.6v1.7h-5v1.7h5V56h-2.5v1.7h2.5v1.7H47v1.7h5v1.7h-3.3v1.7
			H52v1.7h-3.3v1.7H52v1.7h-5.8v1.7h4.2v1.7h-1.7v1.7h1.7v1.7h-1.7v1.7h1.7v1.7h-2.5v1.7h18.3c0.5,0,0.8-0.4,0.8-0.8v-9.1h0.8
			c0.5,0,0.8-0.4,0.8-0.8v-10C68.6,59.7,68.2,59.3,67.7,59.3L67.7,59.3z M66.9,62.6h-6.6v-1.7h6.6V62.6z M58.6,74.2h6.6v1.7h-6.6
			V74.2z M60.3,64.3h6.6v1.7h-6.6V64.3z M56.1,59.3v-1.7h6.6v1.7H56.1z M62.7,56h-6.6v-1.7h6.6V56z M62.7,52.6h-6.6V51h6.6V52.6z
			 M65.2,41v1.7h-6.6V41L65.2,41z M58.6,44.3h6.6V46h-6.6V44.3z M58.6,49.3v-1.7h6.6v1.7L58.6,49.3z M60.3,36.9V36h5v0.8
			c0,1.4-1.1,2.5-2.5,2.5h-3.3C60,38.6,60.3,37.8,60.3,36.9L60.3,36.9z M56.9,41v8.3h-5V41H56.9z M43.6,41h6.7v1.7h-5v1.7h5V46h-5
			v1.7h5v1.7h-6.6L43.6,41z M49.5,51h5v8.3h-5V51z M53.6,60.9h5v8.3h-5L53.6,60.9z M51.9,70.9h5v8.3h-5L51.9,70.9z M58.6,79.2v-1.7
			h6.6v1.7L58.6,79.2z M65.2,72.6h-6.6v-1.7h6.6L65.2,72.6z M60.3,69.3v-1.7h6.6v1.7L60.3,69.3z"/>
	</g>
	<text transform="matrix(1 0 0 1 1104.7285 2998.3679)" class="st2 st3 st4">₹</text>
</g>
</svg>
